<svg width="24" height="24" viewBox="0 0 24 24" fill="none" xmlns="http://www.w3.org/2000/svg">
<path d="M13.4927 4.10175L13.4926 4.10187L12 5.64924L10.5075 4.10199L10.5075 4.10195C9.5032 3.06112 8.18402 2.5 6.78507 2.5C5.38611 2.5 4.06691 3.06105 3.06277 4.10191C0.978983 6.26191 0.979226 9.79795 3.0626 11.9567L11.6402 20.8472L12 21.2201L12.3598 20.8472L20.9372 11.9569C20.9373 11.9569 20.9373 11.9568 20.9373 11.9568C23.0207 9.79811 23.0211 6.26193 20.9372 4.10194C19.9329 3.06095 18.6143 2.5 17.2153 2.5C15.8162 2.5 14.4975 3.06086 13.4927 4.10175Z" fill="#dedcdc" stroke="white"/>
</svg>
