<svg width="20" height="20" viewBox="0 0 20 20" fill="none" xmlns="http://www.w3.org/2000/svg">
<path d="M10.1578 18C10.1048 18 10.0518 18 9.99847 17.9998C8.74428 18.0028 7.58542 17.9709 6.45842 17.9023C5.42518 17.8395 4.48203 17.4824 3.73078 16.8699C3.0059 16.2788 2.51088 15.4796 2.25953 14.4947C2.04077 13.6373 2.02918 12.7956 2.01807 11.9816C2.01001 11.3974 2.00171 10.7053 2 10.0014C2.00171 9.29465 2.01001 8.60251 2.01807 8.0184C2.02918 7.20444 2.04077 6.36276 2.25953 5.50521C2.51088 4.52035 3.0059 3.72115 3.73078 3.13009C4.48203 2.51753 5.42518 2.16048 6.45854 2.09761C7.58554 2.02913 8.74464 1.99715 10.0015 2.0002C11.2561 1.99751 12.4146 2.02913 13.5416 2.09761C14.5748 2.16048 15.518 2.51753 16.2692 3.13009C16.9942 3.72115 17.4891 4.52035 17.7405 5.50521C17.9592 6.36264 17.9708 7.20444 17.9819 8.0184C17.99 8.60251 17.9984 9.29465 18 9.99851V10.0014C17.9984 10.7053 17.99 11.3974 17.9819 11.9816C17.9708 12.7955 17.9593 13.6372 17.7405 14.4947C17.4891 15.4796 16.9942 16.2788 16.2692 16.8699C15.518 17.4824 14.5748 17.8395 13.5416 17.9023C12.4623 17.968 11.3536 18 10.1578 18ZM9.99847 16.7498C11.2323 16.7527 12.3651 16.7216 13.4656 16.6547C14.2469 16.6072 14.9243 16.3536 15.4793 15.9011C15.9922 15.4828 16.3455 14.9056 16.5292 14.1857C16.7114 13.4719 16.7219 12.7056 16.732 11.9645C16.7399 11.3843 16.7482 10.697 16.75 9.99998C16.7482 9.30283 16.7399 8.6157 16.732 8.03549C16.7219 7.2944 16.7114 6.52804 16.5292 5.81418C16.3455 5.0942 15.9922 4.51705 15.4793 4.09872C14.9243 3.64632 14.2469 3.39278 13.4656 3.3453C12.3651 3.27828 11.2323 3.2474 10.0014 3.25008C8.76784 3.24715 7.63486 3.27828 6.53435 3.3453C5.75307 3.39278 5.07568 3.64632 4.52073 4.09872C4.00777 4.51705 3.65448 5.0942 3.47076 5.81418C3.28862 6.52804 3.27812 7.29428 3.26799 8.03549C3.26006 8.61619 3.25176 9.30381 3.25005 10.0014C3.25176 10.696 3.26006 11.3838 3.26799 11.9645C3.27812 12.7056 3.28862 13.4719 3.47076 14.1857C3.65448 14.9056 4.00777 15.4828 4.52073 15.9011C5.07568 16.3535 5.75307 16.6071 6.53435 16.6545C7.63486 16.7216 8.76808 16.7528 9.99847 16.7498ZM9.96869 13.9062C7.8148 13.9062 6.06229 12.1539 6.06229 9.99998C6.06229 7.84604 7.8148 6.09372 9.96869 6.09372C12.1227 6.09372 13.8751 7.84604 13.8751 9.99998C13.8751 12.1539 12.1227 13.9062 9.96869 13.9062ZM9.96869 7.34372C8.50403 7.34372 7.31234 8.53537 7.31234 9.99998C7.31234 11.4646 8.50403 12.6562 9.96869 12.6562C11.4335 12.6562 12.625 11.4646 12.625 9.99998C12.625 8.53537 11.4335 7.34372 9.96869 7.34372ZM14.3126 4.84371C13.7949 4.84371 13.3751 5.26339 13.3751 5.78122C13.3751 6.29904 13.7949 6.71872 14.3126 6.71872C14.8304 6.71872 15.2501 6.29904 15.2501 5.78122C15.2501 5.26339 14.8304 4.84371 14.3126 4.84371Z" fill="black"/>
</svg>
